<svg width="713" height="255" fill="none" xmlns="http://www.w3.org/2000/svg"><path d="M177.131 77.16a70.64 70.64 0 0 0-50.748-20.525A70.63 70.63 0 0 0 79.701 179.4c.84.76 1.69 1.5 2.57 2.22.88.72 1.76 1.42 2.66 2.1.9.68 1.83 1.34 2.77 2a69.04 69.04 0 0 0 5.83 3.54c1 .54 2 1.06 3 1.56 2.06 1 4.17 1.89 6.339 2.68 1.081.39 2.17.77 3.28 1.11l1.671.5c1.11.31 2.24.61 3.38.87 1.139.26 2.289.5 3.449.71 1.16.21 2.331.38 3.511.53 1.18.15 2.36.27 3.56.36 1.793.14 3.603.21 5.429.21 1.827 0 3.637-.07 5.431-.21 1.2-.09 2.39-.21 3.56-.36s2.349-.33 3.509-.53a65.69 65.69 0 0 0 3.451-.71c1.14-.26 2.269-.56 3.379-.87l1.67-.5c1.11-.34 2.2-.72 3.28-1.11 1.62-.6 3.214-1.25 4.781-1.95l1.56-.73a73.783 73.783 0 0 0 2.519-1.29 50.61 50.61 0 0 0 3.491-2c1-.59 1.92-1.2 2.86-1.83a71.306 71.306 0 0 0 20.92-21.95c.593-.98 1.163-1.98 1.71-3 .81-1.49 1.579-3 2.279-4.59.47-1 .911-2.09 1.331-3.16a70.677 70.677 0 0 0-15.81-75.84h.06Zm-8.261 59.76h-30.369v30.36h-20.4v-30.36h-30.35v-20.44h30.36V86.15h20.39v30.33h30.36l.009 20.44Z" fill="#6437BF"/><path d="M229.221 51.33a18.94 18.94 0 0 0-26.25-26.25 127.151 127.151 0 0 0-165.73 191.979 127.151 127.151 0 0 0 191.98-165.73Zm-23.85-14a8.78 8.78 0 0 1 6.39-5.11 8.252 8.252 0 0 1 1.66-.16 8.8 8.8 0 0 1 8.79 8.79 8.334 8.334 0 0 1-.16 1.66 8.797 8.797 0 0 1-5.1 6.39 8.655 8.655 0 0 1-3.53.74 8.782 8.782 0 0 1-8.79-8.79 8.612 8.612 0 0 1 .74-3.5v-.02Zm-78.18 208.86a119.074 119.074 0 0 1-96.388-49.099A119.071 119.071 0 0 1 197.311 30.92a18.948 18.948 0 0 0 13.929 28.75 18.95 18.95 0 0 0 12.141-2.68 119.054 119.054 0 0 1-33.94 171.63 119.058 119.058 0 0 1-62.25 17.57Zm245.039-8.1h5.99V199.1h-5.99v16.16h-13.44V199.1h-5.99v38.99h5.99v-17.91h13.44v17.91Zm54.471 1.2a11.557 11.557 0 0 0 5.39-1.25 12.44 12.44 0 0 0 4-3.35 18.88 18.88 0 0 0 2.76-4.78 28.18 28.18 0 0 0 1.58-5.58 33.116 33.116 0 0 0 0-11.46 28.478 28.478 0 0 0-1.58-5.59 19.211 19.211 0 0 0-2.76-4.78 12.55 12.55 0 0 0-4-3.34 12.127 12.127 0 0 0-10.72 0 12.74 12.74 0 0 0-4 3.3 19.248 19.248 0 0 0-2.78 4.73 26.928 26.928 0 0 0-1.61 5.52 31.643 31.643 0 0 0-.52 5.68 32.427 32.427 0 0 0 .5 5.76 29.034 29.034 0 0 0 1.57 5.64 19.24 19.24 0 0 0 2.74 4.85 12.626 12.626 0 0 0 4 3.4 11.494 11.494 0 0 0 5.42 1.27l.01-.02Zm-.01-36.52a6 6 0 0 1 4 1.5 10.012 10.012 0 0 1 2.55 3.81 23.09 23.09 0 0 1 1.31 5.12c.253 1.795.38 3.607.38 5.42a40.154 40.154 0 0 1-.35 5.39 22.74 22.74 0 0 1-1.26 5.12 9.623 9.623 0 0 1-2.53 3.83 6.092 6.092 0 0 1-4.09 1.52 6.269 6.269 0 0 1-4.13-1.46 9.643 9.643 0 0 1-2.56-3.72 20.933 20.933 0 0 1-1.3-5 36.574 36.574 0 0 1-.37-5.29 40.257 40.257 0 0 1 .37-5.54 22.884 22.884 0 0 1 1.3-5.25 10.112 10.112 0 0 1 2.56-3.9 5.998 5.998 0 0 1 4.13-1.54m56.5 36.51a14.07 14.07 0 0 0 6.16-1.34 10.768 10.768 0 0 0 4.38-3.75 10.289 10.289 0 0 0 1.669-5.75 11.46 11.46 0 0 0-1.609-6.05 13.3 13.3 0 0 0-4.68-4.41l-6.53-4a9.756 9.756 0 0 1-3-2.62 6.35 6.35 0 0 1-1.25-3.75 4.885 4.885 0 0 1 .77-2.75 4.684 4.684 0 0 1 2-1.68 7.19 7.19 0 0 1 2.89-.58 7.412 7.412 0 0 1 3 .66c.78.361 1.512.818 2.18 1.36.43.36.835.751 1.21 1.17l3.56-2.88a9.7 9.7 0 0 0-1.05-1.23 12.87 12.87 0 0 0-5-3.15 12.373 12.373 0 0 0-3.91-.63 14.399 14.399 0 0 0-6.06 1.21 9.121 9.121 0 0 0-4 3.52 10.686 10.686 0 0 0-1.461 5.66 10.922 10.922 0 0 0 .851 4.25 11.381 11.381 0 0 0 2.17 3.33 13.86 13.86 0 0 0 3 2.42l7.21 4.33a9.934 9.934 0 0 1 2.83 2.62 5.553 5.553 0 0 1 1.12 3.14 6.222 6.222 0 0 1-.861 3.27 5.616 5.616 0 0 1-2.279 2.12 7.102 7.102 0 0 1-3.24.75 7.63 7.63 0 0 1-2.41-.47 19.15 19.15 0 0 1-2.3-1.05c-.65-.38-1.21-.73-1.69-1s-.84-.57-1.11-.77l-2.65 4.17c.27.21.73.52 1.38.94.758.482 1.543.923 2.35 1.32.965.476 1.968.871 3 1.18a12.25 12.25 0 0 0 3.36.5m56.22-35.17h9.71v-5.07h-25.18v5.07h9.64v33.91h5.83v-33.91Zm47.429-5.08h-6.22v38.99h6.22V199.1Zm56.291 38.99h5.9v-39h-6v25.04c0 .37 0 1 .07 2l-12.44-27h-7.43v39h6v-27.11c0-.38-.07-1-.11-2l14 29.07m64.779-33.36 2.42-3.94c-1.27-.64-2.44-1.17-3.52-1.6a18.705 18.705 0 0 0-3.35-1 22.24 22.24 0 0 0-4-.32 13.998 13.998 0 0 0-6.81 1.75 15.116 15.116 0 0 0-5.1 4.69 21.016 21.016 0 0 0-3 6.45 28.762 28.762 0 0 0-1 7.81 32.123 32.123 0 0 0 .51 5.84 25.037 25.037 0 0 0 1.66 5.58 17.472 17.472 0 0 0 3 4.72 13.465 13.465 0 0 0 4.53 3.26 15.39 15.39 0 0 0 6.23 1.22c1.74.004 3.478-.12 5.2-.37a30.637 30.637 0 0 0 3.65-.75c.94-.27 1.58-.48 1.92-.62v-16.5h-5.61v12.81a16.956 16.956 0 0 1-5.06.76 8.006 8.006 0 0 1-4.89-1.57 11.585 11.585 0 0 1-3.3-4.19 15.964 15.964 0 0 1-1.42-4.62 32.333 32.333 0 0 1-.4-5.31c-.002-1.9.182-3.796.55-5.66a19.605 19.605 0 0 1 1.57-4.8 12.618 12.618 0 0 1 2.23-3.1 10.479 10.479 0 0 1 2.75-2 6.658 6.658 0 0 1 2.84-.72 17.1 17.1 0 0 1 4.37.57c1.032.257 2.036.612 3 1.06.374.169.738.36 1.09.57" fill="#6437BF"/><path d="M308.76 238.01v-170h44.97a63.998 63.998 0 0 1 23.48 4.37 58.588 58.588 0 0 1 19.15 12.1 56.174 56.174 0 0 1 12.92 18.44 58.499 58.499 0 0 1 4.71 23.38 59.156 59.156 0 0 1-4.71 23.53 56.741 56.741 0 0 1-12.92 18.6 59.072 59.072 0 0 1-19.17 12.22 63.617 63.617 0 0 1-23.48 4.39h-.64v-18.56h.64a37.683 37.683 0 0 0 33.17-19.37 42.379 42.379 0 0 0 5.24-20.84 41.56 41.56 0 0 0-5.24-20.62 37.58 37.58 0 0 0-13.8-14 38.436 38.436 0 0 0-19.37-5.17h-22.95v151.5h-22v.03Zm343.74-55.36a64.173 64.173 0 0 1-13.68-5.78 58.147 58.147 0 0 1-8.39-5.77c-.999-.822-1.95-1.7-2.85-2.63l10.68-15.68a31.536 31.536 0 0 0 2.33 2.1 52.25 52.25 0 0 0 6.64 4.61 50.976 50.976 0 0 0 10.39 4.61 45.625 45.625 0 0 0 13.58 2.09 25.997 25.997 0 0 0 9.19-1.64 16.945 16.945 0 0 0 7.06-4.83 12.001 12.001 0 0 0 2.83-7.85 11.385 11.385 0 0 0-4.38-8.75 42.982 42.982 0 0 0-10.93-6.39 1101.795 1101.795 0 0 0-14.23-5.88 91.665 91.665 0 0 1-14.21-7.24 36.346 36.346 0 0 1-10.95-10.48c-2.82-4.18-4.276-9.37-4.37-15.57.087-6.98 1.98-12.903 5.68-17.77a34.621 34.621 0 0 1 14.92-11.11 55.683 55.683 0 0 1 21-3.83 65.578 65.578 0 0 1 16.42 2 53.901 53.901 0 0 1 11.55 4.36 42.442 42.442 0 0 1 6.82 4.38c.789.622 1.54 1.29 2.25 2l-8.87 16.59a21.034 21.034 0 0 0-1.89-1.6 38.6 38.6 0 0 0-5.49-3.51 43.733 43.733 0 0 0-8.91-3.52 46.257 46.257 0 0 0-12.11-1.6 28.112 28.112 0 0 0-9.12 1.43 15.652 15.652 0 0 0-7 4.56 12.334 12.334 0 0 0-2.77 8.1 10.997 10.997 0 0 0 4.38 8.55 43.157 43.157 0 0 0 10.94 6.22 1000.15 1000.15 0 0 0 14.21 5.77 89.854 89.854 0 0 1 14.28 7.16 35.665 35.665 0 0 1 10.93 10.48c2.834 4.2 4.294 9.417 4.38 15.65a30.138 30.138 0 0 1-5.18 17.14 34.547 34.547 0 0 1-14.41 11.84c-6.213 2.88-13.546 4.35-22 4.41a66.536 66.536 0 0 1-18.7-2.62h-.02Zm-153.14-49.6V67.54h21.78v68.17a29.85 29.85 0 1 0 59.7.37V67.54h21.78v66.15a51.632 51.632 0 0 1-88.364 35.962 51.635 51.635 0 0 1-14.896-36.602Zm-39.13 49.43a26.735 26.735 0 0 1-10-4.32 23.265 23.265 0 0 1-7.68-9.73c-2-4.32-3.023-10.053-3.07-17.2V22.14h22v125.2c0 4.573.557 8.04 1.67 10.4a9.005 9.005 0 0 0 4.39 4.8 13.906 13.906 0 0 0 6.21 1.16c1 0 1.95 0 2.69-.11s1.14-.1 1.17-.11v19.51c-.07 0-.79.1-2.18.23-1.39.13-3.1.2-5.09.22a46.226 46.226 0 0 1-10.09-1" fill="#6437BF"/></svg>